<svg width="119.236954" height="53.419922" viewBox="0 0 119.237 53.4199" fill="none" xmlns="http://www.w3.org/2000/svg" xmlns:xlink="http://www.w3.org/1999/xlink">
	<path id="ALL" d="M42.9423 54.1934Q43.1708 54.2988 43.663 54.2988L50.2899 54.2988Q50.963 54.2988 51.1575 53.9938Q51.3185 53.7411 51.1513 53.2793L30.1278 0.791016Q29.9169 0.228516 29.7763 0.123047Q29.6356 0 28.9852 0L22.288 0Q21.5673 0 21.4442 0.123047Q21.3388 0.228516 21.1278 0.791016L0.104385 53.2793Q-0.0836182 53.7336 0.0669861 53.9855Q0.254333 54.2988 0.965714 54.2988L7.59267 54.2988Q8.10243 54.2988 8.31337 54.1934Q8.52431 54.0879 8.68251 53.5781L13.8505 40.623L37.3349 40.623L42.5204 53.5781Q42.7313 54.0879 42.9423 54.1934ZM58.1613 54.0352Q58.425 54.2988 58.7941 54.2988L84.7746 54.2988Q85.1437 54.2988 85.3898 54.0352Q85.6359 53.7891 85.6359 53.4375L85.6359 47.6719Q85.6359 46.7402 84.7746 46.7402L66.1242 46.7402L66.1242 0.878906Q66.1242 0.509766 65.8781 0.263672Q65.632 0 65.2629 0L58.7941 0Q58.425 0 58.1613 0.263672Q57.9152 0.509766 57.9152 0.878906L57.9152 53.4375Q57.9152 53.7891 58.1613 54.0352ZM93.0093 54.0352Q93.273 54.2988 93.6421 54.2988L119.623 54.2988Q119.992 54.2988 120.238 54.0352Q120.484 53.7891 120.484 53.4375L120.484 47.6719Q120.484 46.7402 119.623 46.7402L100.972 46.7402L100.972 0.878906Q100.972 0.509766 100.726 0.263672Q100.48 0 100.111 0L93.6421 0Q93.273 0 93.0093 0.263672Q92.7632 0.509766 92.7632 0.878906L92.7632 53.4375Q92.7632 53.7891 93.0093 54.0352ZM34.3114 33.0469L16.8036 33.0469L25.5927 10.8809L34.3114 33.0469Z" fill="url(#paint_linear_6_1_0)"/>
	<defs>
		<linearGradient id="paint_linear_6_1_0" x1="-1.722656" y1="-15.673820" x2="120.277290" y2="-15.673820" gradientUnits="userSpaceOnUse">
			<stop stop-color="#FF0000"/>
			<stop offset="0.20" stop-color="#FF8800"/>
			<stop offset="0.40" stop-color="#FFFF00"/>
			<stop offset="0.60" stop-color="#00FF00"/>
			<stop offset="0.80" stop-color="#0000FF"/>
			<stop offset="1" stop-color="#8800FF"/>
		</linearGradient>
	</defs>
</svg>
