<svg width="1129" height="759" viewBox="0 0 1129 759" fill="none" xmlns="http://www.w3.org/2000/svg">
<path d="M600.136 555.393C603.758 554.076 667.733 552.362 670.63 552C670.63 560.849 651.687 561.326 645.184 564.252C640.292 566.453 640.895 569.52 640.095 574.053C639.615 576.773 627.24 578.671 624.828 581.687C619.105 588.841 631.971 584.023 633.404 592.619C633.912 595.67 639.106 594.069 641.037 596.483C643.459 599.51 645.734 601.827 648.577 604.588C652.533 608.431 654.165 609.677 659.792 609.677C667.635 609.677 668.906 611.723 674.4 616.086C684.342 623.981 706.746 619.856 719.26 619.856C735.035 619.856 749.443 620.932 764.497 615.709C776.483 611.551 792.051 614.304 803.325 620.044C809.717 623.298 809.862 631.105 814.635 633.427C820.872 636.461 828.678 634.44 835.274 636.254C843.614 638.547 847.729 640.381 856.479 640.212C859.931 640.146 863.393 640.212 866.846 640.212C874.532 640.212 882.776 639.348 890.407 640.401C897.418 641.368 901.328 645.991 907.371 648.694C919.333 654.046 932.166 657.176 945.163 657.176C965.732 657.176 972.138 680.891 994.641 674.14C1020.86 666.274 1051.75 653.673 1074.37 674.14C1078.46 677.836 1088.68 681.128 1094.35 680.926C1101.18 680.682 1107.56 673.157 1114.99 672.538C1120.29 672.097 1133.14 672.117 1125.64 681.114C1120.14 687.716 1109.7 690.737 1102.64 695.439C1097.29 699.01 1092.02 703.216 1087.38 707.691C1081.13 713.718 1068.37 717.182 1060.23 719.189C1052.75 721.036 1047.1 726.984 1039.69 728.33C1022.61 731.435 1007.89 744.696 990.682 746.991C984.435 747.824 978.991 751.582 973.153 753.87C956.037 760.58 941.552 758.4 923.654 755.706L922.732 755.567C895.513 751.474 868.161 751.589 840.646 752.174C809.585 752.835 779.292 754.456 748.193 749.724C739.731 748.436 727.485 751.462 719.825 747.085C715.971 744.883 719.642 737.3 717.846 737.001C708.319 735.413 699.189 735.917 689.667 733.891C674.746 730.716 659.399 732.757 644.43 730.498C623.299 727.308 599.785 730.121 578.648 730.121C550.248 730.121 522.021 731.84 494.205 725.88C478.001 722.408 461.181 712.52 446.612 704.675C435.625 698.759 425.816 697.474 413.958 695.921L413.156 695.816C389.179 692.672 445.743 680.926 421.261 680.926C414.202 680.926 407.534 678.499 400.527 677.91C382.501 676.394 364.043 677.533 345.96 677.533H308.356C282.568 677.533 259.292 682.082 233.998 685.167C227.68 685.937 209.974 689.351 224.856 683.188C225.834 682.783 243.988 675.231 240.501 674.234C236.669 673.14 234.212 670.21 229.946 669.428C220.518 667.699 210.973 666.165 201.484 664.81C177.751 661.42 153.124 660.569 129.105 660.569C118.18 660.569 110.399 658.908 99.7004 656.234C84.6939 652.482 69.6922 651.175 56.5367 642.286C44.7425 634.317 29.2891 633.55 17.5197 624.568C14.8937 622.564 -2.10139 608.341 1.49828 606.284C14.648 598.77 32.2326 599.499 46.9238 599.499C90.2753 599.499 133.647 599.026 176.98 600.347C267.822 603.117 358.935 601.195 449.817 601.195C461.481 601.195 472.409 601.035 483.933 599.499C502.301 597.05 520.21 584.908 537.935 579.519C553.927 574.657 571.115 570.468 585.81 563.121C590.364 560.844 595.436 557.102 600.136 555.393Z" fill="#F52121" stroke="#F52121" stroke-linecap="round"/>
<path fill-rule="evenodd" clip-rule="evenodd" d="M608 527.207C583.464 544.706 553.434 555 521 555C438.157 555 371 487.843 371 405C371 322.157 438.157 255 521 255C553.434 255 583.464 265.294 608 282.793V255H671V405V555H608V527.207ZM608 404.5C608 452.825 568.825 492 520.5 492C472.175 492 433 452.825 433 404.5C433 356.175 472.175 317 520.5 317C568.825 317 608 356.175 608 404.5Z" fill="#C31010"/>
<path fill-rule="evenodd" clip-rule="evenodd" d="M71 55H134H371V118H134V218H371V281H134V555H71V55Z" fill="#C31010"/>
<path fill-rule="evenodd" clip-rule="evenodd" d="M852.5 55H789.5V118H852.5V55ZM789.5 148H852.5V555H789.5V309.931C791.368 309.081 793.201 308.201 794.856 307.243C794.925 307.203 795.002 307.159 795.086 307.11C796.728 306.165 801.104 303.645 801.189 302.036C801.228 301.301 800.797 300.649 800.336 299.951C799.831 299.186 799.289 298.366 799.289 297.322C799.289 293.711 808.821 289.911 811.603 289.405C814.031 288.964 812.743 283.37 811.886 279.647L811.886 279.646L811.886 279.645C811.576 278.296 811.322 277.192 811.322 276.669C811.322 273.281 810.003 270.671 808.616 267.927C807.894 266.499 807.154 265.034 806.572 263.405C805.791 261.217 804.925 258.75 804.355 256.474C804.003 255.063 803.232 253.999 802.453 252.924L802.453 252.924C801.951 252.232 801.446 251.536 801.048 250.739C799.974 248.591 798.366 248.265 796.756 247.938C795.499 247.684 794.242 247.429 793.238 246.306C791.917 244.83 791.344 241.243 791.056 239.375C790.896 238.333 790.552 237.284 790.211 236.242L790.211 236.242L790.211 236.241C790.01 235.629 789.81 235.019 789.649 234.414C789.609 234.263 789.558 234.118 789.5 233.977V148Z" fill="#C31010"/>
<rect x="971.5" y="55" width="63" height="500" fill="#C31010"/>
<path d="M71 196C77.0408 196 83.0225 194.81 88.6034 192.498C94.1844 190.187 99.2554 186.798 103.527 182.527C107.798 178.255 111.187 173.184 113.498 167.603C115.81 162.022 117 156.041 117 150C117 143.959 115.81 137.978 113.498 132.397C111.187 126.816 107.798 121.745 103.527 117.473C99.2554 113.202 94.1844 109.813 88.6034 107.502C83.0225 105.19 77.0408 104 71 104L71 150L71 196Z" fill="url(#paint0_radial_3_54)"/>
<path d="M971.5 110C978.723 110 985.875 108.577 992.548 105.813C999.22 103.049 1005.28 98.9981 1010.39 93.8909C1015.5 88.7837 1019.55 82.7205 1022.31 76.0476C1025.08 69.3747 1026.5 62.2227 1026.5 55L971.5 55L971.5 110Z" fill="url(#paint1_radial_3_54)"/>
<path d="M71 422C77.0408 422 83.0225 420.81 88.6034 418.498C94.1844 416.187 99.2554 412.798 103.527 408.527C107.798 404.255 111.187 399.184 113.498 393.603C115.81 388.022 117 382.041 117 376C117 369.959 115.81 363.978 113.498 358.397C111.187 352.816 107.798 347.745 103.527 343.473C99.2554 339.202 94.1844 335.813 88.6034 333.502C83.0225 331.19 77.0408 330 71 330L71 376L71 422Z" fill="url(#paint2_radial_3_54)"/>
<path d="M371 218C358.8 218 347.1 221.319 338.473 227.226C329.846 233.134 325 241.146 325 249.5C325 257.854 329.846 265.866 338.473 271.774C347.1 277.681 358.8 281 371 281L371 249.5L371 218Z" fill="url(#paint3_radial_3_54)"/>
<path d="M402.223 345.552C399.07 345.552 399.271 347.848 399.327 350.338C399.43 354.985 402.413 353.975 405.259 351.545C407.751 349.418 409.101 347.909 409.101 344.506C409.101 341.743 406.455 344.899 405.923 345.753C404.753 347.631 403.025 350.071 402.947 352.349C402.863 354.763 406.094 348.735 406.345 347.865C406.498 347.337 407.647 342.683 406.687 342.334C404.127 341.403 401.248 346.364 400.453 348.086C399.75 349.61 398.373 353.631 399.769 355.105C400.766 356.157 403.167 355.688 404.435 355.688C406.781 355.688 408.257 355.449 410.146 353.918C413.234 351.417 415.221 340.198 408.135 343.561C404.421 345.324 400.47 349.271 399.769 353.476C398.97 358.272 403.631 359.189 407.291 358.061C410.223 357.156 412.747 355.309 414.329 352.671C416.8 348.553 419.376 344.53 421.891 340.444C422.698 339.133 423.653 336.964 421.328 338.031C417.657 339.715 413.944 343.272 411.514 346.397C410.946 347.127 408.468 350.446 409.161 351.485C410.76 353.884 420.208 346.195 421.127 345.23C422.299 344 427.764 337.699 426.034 335.497C425.017 334.203 420.974 337.25 420.363 337.93C418.415 340.094 418.985 342.982 416.622 344.828C414.898 346.175 413.723 348.1 411.997 349.453C411.422 349.904 410.321 351.19 409.583 351.324C409.184 351.396 406.607 352.002 406.607 351.424C406.607 350.589 406.796 349.512 407.09 348.73C407.154 348.556 408.229 346.51 407.934 346.437C406.335 346.037 406.205 353.976 406.205 355.165C406.205 358.1 408.865 359.553 411.514 358.121C412.829 357.41 414.892 356.442 414.892 354.783C414.892 353.658 410.167 353.878 409.181 353.878C406.407 353.878 400.703 353.404 399.528 356.593C398.562 359.214 404.752 358.222 406.084 358.222C408.294 358.222 408.784 356.958 408.497 354.602C408.277 352.788 404.477 354.324 403.832 355.044C402.297 356.756 402.585 361.169 402.585 363.29C402.585 367.408 408.08 367.272 411.112 367.272C411.752 367.272 412.773 367.071 412.72 366.186C412.666 365.253 408.078 365.954 407.512 366.206C406.46 366.673 405.546 367.524 404.576 367.955C403.32 368.513 406.087 364.735 406.185 364.577C407.294 362.774 410.669 359.308 406.567 359.308C404.078 359.308 400.588 360.072 402.786 363.27C403.637 364.508 408.843 366.152 410.187 364.738C411.012 363.869 410.513 361.666 410.267 360.635C410.028 359.631 408.185 358.779 407.291 358.443C403.772 357.123 404.757 361.857 404.757 364.014C404.757 366.524 405.47 366.91 407.834 366.91C409.582 366.91 408.911 362.352 407.653 362.204C406.536 362.072 404.576 361.121 403.832 362.566C402.646 364.867 403.421 367.272 406.044 367.272C407.548 367.272 408.944 366.866 409.945 365.683C410.625 364.88 407.704 365.57 407.17 366.467C406.637 367.362 407.171 368.429 406.848 369.363C406.836 369.399 405.294 371.464 406.366 370.851C407.144 370.406 405.676 367.87 405.28 367.473C404.444 366.638 404.496 366.54 404.375 365.26C404.254 363.999 403.671 362.96 403.671 361.661C403.671 360.504 403.526 359.401 402.424 358.785C400.528 357.725 391.001 355.997 391.001 360.313C391.001 363.399 397.155 362.492 398.563 362.284C399.552 362.138 400.725 361.503 401.298 360.675C402.581 358.821 400.662 359.308 399.126 359.308C396.365 359.308 394.699 359.543 392.489 361.279C391.153 362.328 397.289 361.901 398.08 361.56C398.722 361.283 400.398 360.922 399.97 359.951C399.158 358.106 393.707 359.64 392.288 360.032C392.114 360.08 389.3 361.244 389.633 361.661C390.672 362.959 394.759 361.324 395.868 360.756C398.665 359.321 397.155 355.866 397.155 353.234C397.155 350.379 396.793 347.567 396.793 344.707C396.793 341.829 397.728 340.223 399.327 337.95C400.403 336.42 401.616 335.052 403.309 334.25C405.188 333.36 402.934 340.459 402.524 341.309C401.507 343.416 400.381 345.48 399.689 347.724C399.377 348.736 398.735 351.583 398.341 350.6C398.039 349.844 399.801 347.62 400.131 347.04C401.293 345.003 402.277 342.87 403.349 340.786C403.892 339.73 408.03 333.835 407.21 332.4C406.582 331.3 401.505 339.537 401.137 340.162C400.792 340.748 398.039 345.77 398.925 343.38C399.724 341.224 401.847 338.223 398.201 339.438C396.05 340.155 394.22 341.39 393.736 343.742C393.492 344.929 393.07 347.353 395.144 346.316C398.317 344.729 400.564 341.522 403.188 339.237C404.896 337.75 410.333 333.777 408.859 335.497C406.525 338.22 404.622 341.447 402.947 344.627C401.636 347.115 401.747 346.5 403.128 344.406C404.979 341.596 407.25 337.214 407.25 333.767C407.25 331.988 402.067 335.035 401.418 335.416C399.829 336.349 398.192 337.567 396.873 338.835C395.464 340.19 395.67 346.086 396.33 347.865C397.051 349.806 399.35 352.185 401.418 352.47C403.848 352.805 407.646 352.868 409.764 354.059C411.695 355.145 414.535 359.509 417.185 357.055C417.66 356.616 417.633 354.256 417.064 353.958C414.826 352.786 409.771 354.743 407.874 356.09C406.764 356.878 405.063 359.038 406.225 360.394C407.754 362.178 411.731 361.349 413.444 360.112C414.11 359.631 416.375 357.83 416.18 356.854C416.103 356.472 414.183 357.103 414.048 357.156C413.038 357.547 412.853 358.257 412.741 359.268C412.441 361.962 420.488 360.225 418.432 357.94C418.023 357.486 415.848 357.86 415.254 357.86C413.594 357.86 415.187 359.599 416.079 359.81C417.18 360.071 421.712 360.774 422.655 359.831C423.39 359.095 421.094 358.946 420.684 358.946" stroke="#F52121" stroke-width="3" stroke-linecap="round"/>
<path d="M632.784 323.425C630.969 323.425 629.748 324.153 628.28 325.166C625.662 326.971 622.244 328.12 620.549 330.964C618.911 333.712 617.101 336.352 616.284 339.493C615.745 341.566 614.874 343.441 614.016 345.403C613.776 345.953 613.086 346.584 612.962 347.144C612.733 348.174 619.182 344.849 619.846 344.412C624.375 341.434 629.743 338.588 633.231 334.35C633.842 333.608 637.632 329.009 635.882 327.865C633.796 326.501 629.297 329.16 627.673 330.037C621.234 333.515 615.482 339.433 610.838 344.94C608.966 347.158 607.67 349.716 606.413 352.319C606.28 352.595 604.918 354.923 605.998 354.683C607.567 354.334 609.111 352.86 610.263 351.824C614.257 348.228 617.634 344.023 620.868 339.748C624.52 334.922 628.094 329.957 631.506 324.958C633.45 322.109 635.077 318.947 636.154 315.662C637.07 312.869 635.558 312.677 633.103 313.777C630.322 315.023 628.11 317.287 625.82 319.24C622.232 322.3 618.798 325.547 615.534 328.951C609.957 334.766 606.902 341.739 605.407 349.619C605.149 350.981 603.891 354.537 604.736 355.945C605.269 356.832 607.498 355.191 607.931 354.922C614.915 350.579 621.279 344.713 626.89 338.742C629.737 335.713 632.712 332.448 634.589 328.696C634.876 328.12 635.554 326.925 634.413 327.673C629.12 331.147 624.081 336.188 620.277 341.17C618.253 343.822 616.624 346.752 614.99 349.651C614.476 350.565 613.58 351.878 613.281 352.974C612.948 354.196 615.442 352.51 615.629 352.383C617.881 350.855 620.279 349.485 622.37 347.735C624.873 345.639 626.989 343.08 629.11 340.611C629.7 339.925 632.703 337.141 632.081 335.979C631.733 335.329 630.022 336.991 629.845 337.193C625.732 341.884 621.84 347.448 618.824 352.91C618.173 354.089 616.054 357.209 616.46 358.66C616.564 359.033 618.753 358.084 618.888 358.021C624.89 355.204 630.129 350.468 635.387 346.505C635.632 346.321 639.148 343.125 636.777 344.141C632.27 346.072 628.45 349.842 625.309 353.485C624.414 354.522 621.059 358.767 624.925 357.286C627.677 356.232 630.261 354.337 632.8 352.878C634.869 351.689 638.337 350.338 639.86 348.358C639.959 348.229 637.737 349.58 637.4 349.875C635.493 351.543 633.993 353.461 632.56 355.545C631.386 357.253 630.216 358.973 629.206 360.784C628.903 361.327 627.711 362.81 627.912 363.516C627.95 363.647 628.979 363.109 627.481 362.509C625.981 361.909 624.006 361.34 622.785 360.225C620.508 358.146 620.73 354.522 621.603 351.888C622.421 349.419 623.571 347.111 624.67 344.764C624.889 344.295 625.961 342.968 624.957 343.614C621.739 345.683 618.935 349.605 616.971 352.814C616.228 354.027 614.554 356.696 615.278 358.324C615.959 359.857 625.018 354.066 625.245 353.932C627.75 352.449 630.234 350.956 632.305 348.885C632.455 348.735 634.603 346.457 633.966 346.457C630.943 346.457 628.241 349.476 626.171 351.217C624.11 352.95 620.186 355.419 619.335 358.293C618.687 360.479 625.46 357.458 625.916 357.222C629.038 355.606 632.199 353.951 634.988 351.792C635.688 351.25 638.898 349.253 639.045 348.15C639.092 347.8 635.56 348.941 635.339 349.044C631.936 350.648 628.72 352.858 625.436 354.699C621.426 356.947 617.53 359.667 614.192 362.845C613.24 363.75 613.894 363.416 614.32 362.749C615.667 360.638 619.063 355.35 615.677 353.469C612.267 351.574 610.646 358.551 610.646 360.513C610.646 363.682 610.413 366.533 612.786 369.01C614.12 370.402 614.212 369.86 614.32 368.179C614.433 366.407 614.073 364.917 613.393 363.292C612.297 360.669 611.133 358.175 609.496 355.849C608.94 355.059 608.015 354.842 607.196 354.411C605.574 353.558 604.261 352.148 602.995 350.881C601.616 349.502 599.721 348.102 599.721 346.137C599.721 345.264 600.252 344.742 600.711 344.029C601.781 342.368 602.664 340.605 603.746 338.95C604.215 338.232 605.633 334.35 603.682 334.35C602.223 334.35 601.829 336.253 601.286 337.289C600.494 338.802 600.071 340.288 599.05 341.729C598.317 342.763 597.919 343.656 597.549 344.86C596.76 347.421 600.907 343.139 601.254 342.815C602.822 341.352 604.45 339.938 605.982 338.439C606.434 337.996 607.898 336.883 607.292 337.065C606.279 337.369 605.472 339.223 604.832 339.972C603.36 341.697 602.346 343.263 601.637 345.467C601.495 345.909 600.026 350.94 601.222 351.249C603.322 351.791 607.514 348.4 609.16 347.463C610.292 346.82 611.501 346.267 612.547 345.483C613.206 344.988 611.141 346.352 610.502 346.872C609.767 347.471 607.041 350.113 608.09 351.424C609.029 352.598 614.454 345.869 614.815 345.419C615.361 344.739 618.867 340.85 616.396 340.164C613.849 339.456 610.004 340.655 607.547 341.378C606.946 341.554 602.965 342.95 604.608 343.901C606.384 344.93 608.28 345.681 610.295 346.074C610.946 346.201 610.425 346.192 610.039 346.473C609.076 347.173 608.286 347.921 607.196 348.438C604.839 349.554 604.896 349.41 604.896 346.505C604.896 345.655 605.165 342.585 603.458 343.438C602.241 344.047 601.694 344.95 601.302 346.169C599.491 351.805 606.356 350.711 609.879 349.524C615.501 347.629 620.317 344.18 625.053 340.707C628.301 338.325 631.853 335.033 635.755 333.775C636.998 333.374 638.006 333.018 639.348 332.928C642.419 332.724 639.642 336.521 638.821 337.752C637.41 339.869 636.343 341.849 635.228 344.125C634.647 345.31 633.558 345.817 633.087 347.112C631.959 350.214 635.733 346.483 636.346 345.882C637.988 344.271 638.914 342.477 640.035 340.515C640.313 340.03 639.53 341.523 639.173 341.953C637.949 343.426 636.804 345.05 635.435 346.393C634.209 347.597 632.858 347.953 633.071 349.875C633.17 350.766 642.075 346.38 642.751 346.042C644.48 345.177 649.626 342.672 647.734 343.071C646.486 343.333 644.903 344.313 644.284 345.435C643.606 346.663 642.679 347.756 641.888 348.917C641.822 349.013 641.251 349.557 641.313 349.54C641.942 349.36 642.618 348.209 643.086 347.799C644.262 346.766 645.369 345.508 646.616 344.572C647.044 344.251 648.475 343.779 647.175 343.853C645.625 343.942 644.154 344.253 642.639 344.556C641.289 344.826 639.921 345.289 640.898 343.598C641.807 342.024 643.008 340.608 643.821 338.982C644.887 336.848 643.514 337.155 641.824 337.88C639.177 339.014 636.477 339.997 633.822 341.106C633.707 341.154 630.465 342.526 630.532 342.224C630.744 341.268 632.272 340.425 632.768 339.557C634.118 337.194 634.665 334.178 635.052 331.523C635.214 330.41 636.323 326.831 634.445 326.875C633.087 326.906 631.981 327.513 631.921 328.951C631.858 330.476 631.52 331.857 632.017 333.359C632.621 335.183 633.495 337.027 634.605 338.598C635.766 340.244 636.936 341.856 638.023 343.55C638.532 344.344 638.861 344.839 638.821 343.646C638.73 340.871 636.639 338.147 635.419 335.707C634.499 333.868 632.986 332.252 631.538 330.804C629.883 329.149 635.248 333.663 637.176 334.989C638.894 336.169 641.019 337.328 642.383 338.934C642.574 339.158 643.247 339.925 643.23 339.908C640.616 337.295 638.473 334.342 635.755 331.794C634.031 330.179 632.156 328.462 630.771 326.523C629.202 324.327 626.472 321.495 628.918 318.952C630.481 317.329 631.921 315.22 631.921 312.851C631.921 311.95 630.733 313.348 630.643 313.458C629.488 314.885 628.501 316.503 627.641 318.122C626.371 320.51 624.82 323.304 624.734 326.076C624.663 328.323 629.258 324.754 629.781 324.351C632.334 322.381 635.399 320.39 637.464 317.866C638.693 316.364 633.777 319.123 632.049 320.007C629.729 321.193 623.77 326.339 625.836 324.75C628.451 322.738 630.742 319.554 633.007 317.147C635.323 314.687 630.559 318.321 629.941 318.856C629.841 318.942 628.622 320.134 628.791 320.134C630.096 320.134 632.024 318.869 633.135 318.313C633.904 317.929 635.287 317.326 635.819 316.588C636.331 315.877 634.198 317.269 634.125 317.323C632.817 318.304 629.41 320.531 633.231 318.984C634.603 318.429 636.229 317.935 637.304 316.86C637.945 316.219 636.349 317.435 636.25 317.515C635.904 317.794 633.425 320.164 634.557 319.032C635.977 317.612 637.096 315.571 637.096 313.506C637.096 312.075 635.063 313.083 634.509 313.538C633.508 314.359 633.088 315.378 633.375 316.668C633.698 318.122 636.354 314.91 636.633 314.528C637.429 313.438 637.271 312.787 635.93 312.787C633.539 312.787 630.387 314.46 628.807 316.237C628.324 316.78 627.91 317.943 628.471 318.537C630.609 320.801 635.825 317.483 637.448 316.013C637.908 315.597 640.064 311.551 638.246 311.349C636.672 311.175 635.52 313.146 634.988 314.32C634.451 315.506 633.922 317.163 634.253 318.489C634.42 319.154 636.198 318.824 636.633 318.633C637.629 318.195 638.184 317.356 638.534 316.381C639.042 314.966 639.472 313.469 638.23 312.228C637.341 311.339 634.74 312.037 633.742 312.388C632.757 312.734 628.508 313.963 628.471 315.215C628.437 316.379 628.21 317.109 629.525 317.323C630.67 317.509 633.76 316.237 633.934 315.023C634.21 313.091 631.911 314.211 630.899 314.64C627.757 315.973 624.283 317.999 623.44 321.54C623.102 322.959 623.179 323.585 624.734 323.696C625.175 323.728 627.222 323.477 626.97 323.441C624.895 323.144 623.263 323.935 621.587 325.006C621.557 325.025 618.957 326.846 620.038 327.098C620.997 327.322 622.285 326.632 623.041 326.108C623.637 325.695 625.425 324.642 624.702 324.702C623.474 324.805 621.307 326.033 620.709 327.162C619.523 329.402 623.371 327.766 624.127 327.29C625.764 326.259 626.777 324.819 624.382 326.316C623.879 326.63 620.611 328.73 621.922 329.877C623.339 331.117 627.243 328.469 628.583 328.057C629.099 327.898 629.824 330.13 629.893 330.612C630.074 331.878 630.45 333.486 631.506 334.286C631.782 334.495 632.258 334.866 632.56 334.446C633.487 333.156 632.143 331.224 631.346 330.261C629.927 328.545 629.328 328.272 627.161 328.312C625.877 328.336 624.904 328.69 623.871 329.398C622.322 330.46 622.434 331.137 622.434 333.04C622.434 335.651 622.342 337.644 624.031 339.78C624.496 340.368 625.112 340.632 625.884 340.323C626.826 339.947 626.662 339.376 627.161 338.598C627.525 338.033 628.412 335.887 629.238 336.107C631.395 336.682 633.416 339.285 634.381 341.17C635.124 342.621 635.459 344.062 635.85 345.626C636.296 347.408 637.125 349.078 637.671 350.833C638.112 352.249 638.968 353.73 637.192 354.22C633.954 355.113 631.653 357.669 628.759 359.075C627.006 359.927 624.974 360.881 623.009 361.088C621.855 361.209 621.298 360.526 620.309 359.81C619.778 359.425 619.194 358.966 618.728 358.5C618.286 358.058 618.344 357.368 617.834 356.967C616.323 355.78 613.179 358.545 612.067 359.379C610.474 360.574 611.482 357.533 611.508 356.647C611.54 355.583 611.383 358.183 611.572 358.436C611.88 358.847 612.898 358.931 613.297 358.66C613.975 358.199 613.794 357.461 613.808 356.743C613.849 354.796 614.483 352.839 614.32 350.897C614.148 348.855 612.855 347.735 611.652 346.265C611.005 345.474 610.763 344.546 610.231 343.71C609.611 342.736 606.243 341.957 605.327 342.975C603.853 344.613 601.075 345.23 599.849 347.224C598.972 348.649 602.342 348.983 603.107 349.013C604.114 349.051 602.117 348.861 601.765 347.719C601.544 347.001 602.311 346.455 602.851 346.185C603.657 345.783 603.362 346.456 603.618 346.968C604.108 347.947 605.478 347.995 606.317 347.543C607.686 346.806 607.771 346.11 607.771 344.716C607.771 341.373 606.619 337.964 610.326 336.522C611.656 336.005 613.065 336.445 614.24 337.097C615.789 337.958 617.725 339.226 619.079 340.387C620.567 341.662 619.012 345.067 619.622 346.776C620.03 347.917 620.709 347.72 620.709 349.013C620.709 349.999 620.996 350.922 620.996 351.888C620.996 352.559 620.911 353.26 621.14 353.9C621.379 354.571 622.146 355.383 622.146 356.056C622.146 357.179 622.721 358.13 622.721 359.331C622.721 360.205 622.432 362.638 623.472 363.1C624.178 363.414 625.691 363.569 626.107 364.25C626.232 364.455 627.034 365.532 627.034 365.049C627.034 363.461 624.684 361.663 623.232 361.663C622.827 361.663 618.153 361.512 618.153 361.822C618.153 362.308 620.344 363.537 620.852 363.819C621.723 364.303 624.621 364.396 624.095 362.877C623.332 360.672 618.695 361.663 617.035 362.174C615.867 362.533 614.522 363.436 613.233 363.068C612.39 362.827 611.705 361.437 612.658 360.96C613.203 360.688 614.504 360.511 614.783 359.954C615.584 358.352 612.658 363.098 612.658 364.889C612.658 365.873 611.086 368.749 611.86 366.039C612.746 362.937 610.887 357.437 614.256 355.753C617.966 353.898 622.169 352.834 626.011 351.297C630.237 349.606 634.688 348.567 639.109 347.303C642.893 346.222 645.654 344.796 648.309 341.985C648.611 341.665 649.347 339.343 649.108 339.014C648.788 338.574 648.429 338.36 647.894 338.375C645.838 338.432 643.315 339.995 642.591 341.985C641.184 345.854 648.175 345.448 648.836 343.135C648.969 342.67 643.335 342.33 642.559 342.416C641.406 342.544 642.256 342.656 643.006 342.528C643.944 342.368 644.785 341.959 645.721 341.825C645.958 341.791 647.073 341.282 646.967 341.282C646.379 341.282 645.654 341.79 645.099 341.969C644.625 342.121 641.432 343.252 641.952 343.262C643.228 343.289 644.508 343.262 645.785 343.262C646.715 343.262 648.222 343.637 647.095 344.764C646.8 345.059 644.903 345.529 646.073 345.786C647.562 346.113 649.867 346.003 651.04 347.176C651.59 347.725 652.828 348.275 651.887 348.885C650.908 349.518 649.23 350.163 648.037 350.163C647.016 350.163 642.053 351.175 645.083 349.811C646.36 349.236 647.516 347.287 648.884 347.287C649.163 347.287 651.011 347.168 650.833 347.575C650.55 348.22 648.589 348.504 647.958 348.853C646.975 349.395 645.636 349.835 644.508 349.875C642.528 349.946 640.868 351.6 638.821 351.6" stroke="#F52121" stroke-width="3" stroke-linecap="round"/>
<rect x="584" y="323.282" width="25.8545" height="86.1818" rx="12.9273" transform="rotate(-45 584 323.282)" fill="#DC9B50"/>
<rect x="606.548" y="339.736" width="17.2364" height="32.3182" transform="rotate(-45 606.548 339.736)" fill="#E8F08D"/>
<defs>
<radialGradient id="paint0_radial_3_54" cx="0" cy="0" r="1" gradientUnits="userSpaceOnUse" gradientTransform="translate(71 150) rotate(90) scale(46)">
<stop stop-color="#979191"/>
<stop offset="1" stop-color="#979191" stop-opacity="0"/>
</radialGradient>
<radialGradient id="paint1_radial_3_54" cx="0" cy="0" r="1" gradientUnits="userSpaceOnUse" gradientTransform="translate(971.5 55) rotate(90) scale(55)">
<stop stop-color="#979191"/>
<stop offset="1" stop-color="#979191" stop-opacity="0"/>
</radialGradient>
<radialGradient id="paint2_radial_3_54" cx="0" cy="0" r="1" gradientUnits="userSpaceOnUse" gradientTransform="translate(71 376) rotate(90) scale(46)">
<stop stop-color="#1BA918"/>
<stop offset="1" stop-color="#3D7634" stop-opacity="0"/>
</radialGradient>
<radialGradient id="paint3_radial_3_54" cx="0" cy="0" r="1" gradientUnits="userSpaceOnUse" gradientTransform="translate(371 249.5) rotate(90) scale(31.5 46)">
<stop stop-color="#979191"/>
<stop offset="1" stop-color="#979191" stop-opacity="0"/>
</radialGradient>
</defs>
</svg>
