<svg width="452" height="213" viewBox="0 0 452 213" fill="none" xmlns="http://www.w3.org/2000/svg">
<path d="M58.4072 71.2121C61.7146 45.9331 98.0961 -0.655688 183.144 1.04533C289.453 3.17159 420.569 100.271 448.918 148.467C471.597 187.023 304.337 224.756 174.639 208.711C130.065 203.196 46.1625 169.525 57.24 79.0084C41.5646 71.6373 13.2153 40.0268 1 25.1429L15.1746 18.7641C18.5765 35.7743 45.4138 60.817 58.4072 71.2121Z" fill="url(#paint0_linear_1_29)"/>
<path d="M58.4072 71.2121C61.7146 45.9331 98.0961 -0.655688 183.144 1.04533C289.453 3.17159 420.569 100.271 448.918 148.467C471.597 187.023 304.337 224.756 174.639 208.711C130.065 203.196 46.1625 169.525 57.24 79.0084C41.5646 71.6373 13.2153 40.0268 1 25.1429L15.1746 18.7641C18.5765 35.7743 45.4138 60.817 58.4072 71.2121Z" fill="black" fill-opacity="0.2"/>
<path d="M58.4072 71.2121C61.7146 45.9331 98.0961 -0.655688 183.144 1.04533C289.453 3.17159 420.569 100.271 448.918 148.467C471.597 187.023 304.337 224.756 174.639 208.711C130.065 203.196 46.1625 169.525 57.24 79.0084M58.4072 71.2121C45.4138 60.817 18.5765 35.7743 15.1746 18.7641L1 25.1429C13.2153 40.0268 41.5646 71.6373 57.24 79.0084M58.4072 71.2121C57.9405 73.8565 57.5525 76.4551 57.24 79.0084" stroke="black"/>
<defs>
<linearGradient id="paint0_linear_1_29" x1="151.96" y1="-34.3925" x2="380.888" y2="201.615" gradientUnits="userSpaceOnUse">
<stop stop-color="#10BB0C"/>
<stop offset="1" stop-color="#00FF57"/>
</linearGradient>
</defs>
</svg>
