<svg width="3000" height="500" viewBox="0 0 3000 500" fill="none" xmlns="http://www.w3.org/2000/svg">
<path d="M44 171L143 341L224 115L329 335L461 52" stroke="#000AFF" stroke-width="50"/>
<path d="M1102.5 407L1146.25 261M1328.5 407L1259.25 261M1146.25 261L1190 115L1259.25 261M1146.25 261H1259.25" stroke="#45E468" stroke-width="50"/>
<path fill-rule="evenodd" clip-rule="evenodd" d="M477 369C506.823 369 531 344.823 531 315C531 285.177 506.823 261 477 261C447.177 261 423 285.177 423 315C423 344.823 447.177 369 477 369ZM477 340C490.807 340 502 328.807 502 315C502 301.193 490.807 290 477 290C463.193 290 452 301.193 452 315C452 328.807 463.193 340 477 340Z" fill="#000AFF"/>
<path d="M593 382V248.75M593 115.5V248.75M593 248.75C591.667 209.833 612.2 132 705 132" stroke="#000AFF" stroke-width="30"/>
<path d="M2704.06 455V344.5M2704.06 234V344.5M2704.06 344.5C2702.73 312.228 2723.25 247.683 2816 247.683" stroke="#45E468" stroke-width="15"/>
<path d="M851.152 296C851.171 339.892 851.293 371.062 851.591 373C736.391 402.2 711.258 354.5 713.091 327C719.758 275.333 756.703 196.8 851.152 296ZM851.152 296C851.12 222.129 851.382 112.224 851.591 45L851.152 296Z" stroke="#000AFF" stroke-width="20"/>
<path d="M1535.15 296C1535.17 339.892 1535.29 371.062 1535.59 373C1420.39 402.2 1395.26 354.5 1397.09 327C1403.76 275.333 1440.7 196.8 1535.15 296ZM1535.15 296C1535.12 222.129 1535.38 112.224 1535.59 45L1535.15 296Z" stroke="#45E468" stroke-width="45"/>
<path d="M1604 224L1685.5 382L1767.5 224" stroke="#45E468" stroke-width="40"/>
<path d="M1837.02 328.176H1961.52C1963.68 295.176 1954.92 230.176 1902.52 234.176C1850.12 238.176 1837.02 298.51 1837.02 328.176ZM1837.02 328.176C1831.35 363.176 1846.62 430.076 1953.02 417.676" stroke="#45E468" stroke-width="35"/>
<path d="M2832.02 347.176H2956.52C2958.68 314.176 2949.92 249.176 2897.52 253.176C2845.12 257.176 2832.02 317.51 2832.02 347.176ZM2832.02 347.176C2826.35 382.176 2841.62 449.076 2948.02 436.676" stroke="#45E468" stroke-width="13"/>
<path d="M2038.5 434.5V283.5M2038.5 221.5V283.5M2038.5 283.5C2045.17 265.833 2074.93 227.546 2137 239.5C2204.5 252.5 2204.5 368 2204.5 434.5" stroke="#45E468" stroke-width="30"/>
<path d="M2354.5 203.5V262.5M2354.5 438V262.5M2354.5 262.5H2269H2428.5" stroke="#45E468" stroke-width="25"/>
<path d="M2483 242.5C2475.67 311 2479.3 444 2552.5 428C2625.7 412 2631.67 297.667 2625.5 242.5V428" stroke="#45E468" stroke-width="20"/>
</svg>
