<svg width="2045" height="500" viewBox="0 0 2045 500" fill="none" xmlns="http://www.w3.org/2000/svg">
<path fill-rule="evenodd" clip-rule="evenodd" d="M63 300V500H0V300V150V0H63H150C232.843 0 300 67.1573 300 150C300 232.843 232.843 300 150 300H63ZM225 141C225 182.421 191.421 216 150 216H75V141V66H150C191.421 66 225 99.5786 225 141Z" fill="#4ADBFB"/>
<path fill-rule="evenodd" clip-rule="evenodd" d="M587.146 410.846C563.808 463.371 511.182 500 450 500C367.157 500 300 432.843 300 350C300 267.157 367.157 200 450 200C532.843 200 600 267.157 600 350C600 358.867 599.231 367.555 597.755 376H375C375 417.421 425.368 451 487.5 451C530.764 451 568.323 434.719 587.146 410.846ZM525 350C525 308.579 491.421 275 450 275C408.579 275 375 308.579 375 350H525Z" fill="#4ADBFB"/>
<path fill-rule="evenodd" clip-rule="evenodd" d="M1463.22 410.846C1441.82 463.371 1393.58 500 1337.5 500C1261.56 500 1200 432.843 1200 350C1200 267.157 1261.56 200 1337.5 200C1413.44 200 1475 267.157 1475 350C1475 358.867 1474.29 367.555 1472.94 376H1268.75C1268.75 417.421 1314.92 451 1371.88 451C1411.53 451 1445.96 434.719 1463.22 410.846ZM1406.25 350C1406.25 308.579 1375.47 275 1337.5 275C1299.53 275 1268.75 308.579 1268.75 350H1406.25Z" fill="#4ADBFB"/>
<path fill-rule="evenodd" clip-rule="evenodd" d="M708 200H645V500H708V281.734C723.577 268.188 743.843 260 766 260C804.751 260 837.718 285.044 849.936 320C853.215 310.617 855 300.519 855 290C855 240.294 815.153 200 766 200C743.843 200 723.577 208.188 708 221.734V200Z" fill="#4ADBFB"/>
<path fill-rule="evenodd" clip-rule="evenodd" d="M1084.23 9.94666C1103.34 3.37988 1123.82 0 1144.5 0V52.4334C1092.38 52.4334 1050.11 87.4458 1050 130.67V187H1145V250H1050L1050 500H987V250H900V187H987V130.67V130H987.002C987.107 113.068 991.177 96.312 998.989 80.6648C1006.9 64.8111 1018.51 50.4062 1033.13 38.2724C1047.76 26.1385 1065.12 16.5135 1084.23 9.94666Z" fill="#4ADBFB"/>
<path fill-rule="evenodd" clip-rule="evenodd" d="M1949.93 250V500H1886.93V250H1799.93V187H1886.93V100H1949.93V187H2044.93V250H1949.93Z" fill="#4ADBFB"/>
<path fill-rule="evenodd" clip-rule="evenodd" d="M1679.26 202.882C1708.36 208.67 1735.09 222.956 1756.07 243.934L1711.87 288.13C1696 272.001 1673.92 262 1649.5 262C1601.18 262 1562 301.175 1562 349.5C1562 397.825 1601.18 437 1649.5 437C1673.66 437 1695.54 427.206 1711.37 411.372L1756.07 456.066C1735.09 477.044 1708.36 491.33 1679.26 497.118C1650.17 502.906 1620.01 499.935 1592.6 488.582C1565.19 477.229 1541.76 458.003 1525.28 433.336C1508.8 408.668 1500 379.667 1500 350C1500 320.333 1508.8 291.332 1525.28 266.665C1541.76 241.997 1565.19 222.771 1592.6 211.418C1620.01 200.065 1650.17 197.094 1679.26 202.882Z" fill="#4ADBFB"/>
</svg>
