<svg width="251.303284" height="69.046875" viewBox="0 0 251.303 69.0469" fill="none" xmlns="http://www.w3.org/2000/svg" xmlns:xlink="http://www.w3.org/1999/xlink">
	<path id="(이미지)" d="M75.1753 69.0469L82.3824 69.0469Q83.1734 69.0469 83.4546 68.7832Q83.7359 68.5371 83.7359 67.6758L83.7359 1.35352Q83.7359 0.5625 83.4546 0.28125Q83.1734 0 82.3824 0L75.1753 0Q74.3843 0 74.0855 0.28125Q73.8042 0.5625 73.8042 1.35352L73.8042 67.6758Q73.8042 68.5371 74.0855 68.7832Q74.3843 69.0469 75.1753 69.0469ZM142.855 69.0469L150.062 69.0469Q150.853 69.0469 151.135 68.7832Q151.416 68.5371 151.416 67.6758L151.416 1.35352Q151.416 0.5625 151.135 0.28125Q150.853 0 150.062 0L142.855 0Q142.064 0 141.766 0.28125Q141.484 0.5625 141.484 1.35352L141.484 67.6758Q141.484 68.5371 141.766 68.7832Q142.064 69.0469 142.855 69.0469ZM210.535 69.0469L217.742 69.0469Q218.533 69.0469 218.815 68.7832Q219.096 68.5371 219.096 67.6758L219.096 1.35352Q219.096 0.5625 218.815 0.28125Q218.533 0 217.742 0L210.535 0Q209.744 0 209.446 0.28125Q209.164 0.5625 209.164 1.35352L209.164 67.6758Q209.164 68.5371 209.446 68.7832Q209.744 69.0469 210.535 69.0469ZM10.5293 68.9062C3.32227 59.8184 0 49.3242 0 36.7031C0 24.0469 3.32227 13.5527 10.5293 4.44727L22.6406 4.44727C17.1562 11.1973 13.0254 24.6094 13.0254 36.7031C13.0254 48.7617 17.1562 62.1562 22.6406 68.9062L10.5293 68.9062ZM240.774 4.44727C247.981 13.5527 251.303 24.0469 251.303 36.668C251.303 49.3242 247.981 59.8184 240.774 68.9062L228.645 68.9062C234.147 62.1562 238.26 48.7617 238.26 36.668C238.26 24.6094 234.147 11.1973 228.645 4.44727L240.774 4.44727ZM40.4585 50.3965Q43.8511 52.1191 48.0347 52.1191Q52.2886 52.1191 55.6987 50.3965Q59.1265 48.6562 61.4995 45.5625Q63.8726 42.4688 65.1558 38.127Q66.4566 33.7676 66.4566 28.4414Q66.4566 23.0977 65.1558 18.6855Q63.8726 14.2559 61.4995 11.127Q59.1265 7.98047 55.6987 6.25781Q52.2886 4.53516 48.0347 4.53516Q43.8511 4.53516 40.4585 6.29297Q37.0835 8.05078 34.7104 11.2324Q32.3374 14.3965 31.0366 18.8262Q29.7358 23.2559 29.7358 28.582Q29.7358 33.7676 31.0366 38.0918Q32.3374 42.3984 34.7104 45.5273Q37.0835 48.6562 40.4585 50.3965ZM103.551 48.8848L127.369 48.8848Q128.881 48.8848 129.848 48.709Q130.832 48.5156 131.359 47.9883Q131.904 47.4434 132.115 46.4414Q132.344 45.4219 132.344 43.8398L132.344 10.0723Q132.344 8.49023 132.115 7.52344Q131.904 6.53906 131.359 6.04688Q130.832 5.53711 129.848 5.39648Q128.881 5.25586 127.369 5.25586L103.182 5.25586Q100.457 5.25586 99.3319 6.11719Q98.2245 6.97852 98.2245 10.0723L98.2245 43.8398Q98.2245 45.4922 98.4354 46.4766Q98.6464 47.4434 99.2264 47.9883Q99.8065 48.5156 100.844 48.709Q101.881 48.8848 103.551 48.8848ZM199.953 49.8867Q200.674 50.0977 201.254 49.377L204.629 45.1406Q205.433 44.2059 205.27 43.493Q205.169 43.0529 204.699 42.6973Q203.188 41.4668 201.307 39.9199Q199.444 38.373 197.563 36.5449Q195.699 34.6992 193.942 32.6777Q192.184 30.6562 190.813 28.5117Q193.115 24.7676 194.768 21.0938Q196.42 17.4199 197.281 13.8867Q197.51 13.0254 197.686 12.0938Q197.862 11.1445 197.862 10.1426Q197.862 7.76953 196.244 6.55664Q194.627 5.32617 191.815 5.32617L168.049 5.32617Q167.258 5.32617 166.942 5.66016Q166.625 5.97656 166.625 6.83789L166.625 12.0234Q166.625 12.7441 166.801 13.1484Q166.977 13.5352 167.979 13.5352L185.487 13.5352Q186.244 13.5352 186.512 13.8973Q186.778 14.2576 186.559 14.9766Q185.258 19.0723 182.885 23.1855Q180.512 27.2812 177.383 31.166Q174.254 35.0508 170.51 38.584Q166.766 42.1172 162.582 45Q161.932 45.4219 161.756 45.8965Q161.58 46.3535 162.16 47.1445L165.535 51.6973Q166.115 52.4004 166.502 52.4883Q166.906 52.5586 167.557 52.1191Q172.742 48.8145 177.278 44.6836Q181.813 40.5352 185.487 35.9121Q186.84 37.793 188.563 39.7793Q190.303 41.748 192.061 43.5234Q193.836 45.2812 195.453 46.7227Q197.071 48.1641 198.301 49.0254Q199.233 49.6758 199.953 49.8867ZM44.6069 14.3613Q46.1538 13.2363 48.0347 13.2363Q49.9683 13.2363 51.5151 14.3613Q53.0796 15.4688 54.187 17.4902Q55.312 19.5117 55.9097 22.3242Q56.5249 25.1191 56.5249 28.4414Q56.5249 31.6055 55.9097 34.3477Q55.312 37.0723 54.187 39.0938Q53.0796 41.0977 51.5151 42.2578Q49.9683 43.4004 48.0347 43.4004Q46.1538 43.4004 44.6069 42.2578Q43.0601 41.0977 41.9351 39.0938Q40.8276 37.0723 40.2124 34.3477Q39.6147 31.6055 39.6147 28.4414Q39.6147 25.1191 40.2124 22.3242Q40.8276 19.5117 41.9351 17.4902Q43.0601 15.4688 44.6069 14.3613ZM122.219 13.6406Q122.412 13.8867 122.412 14.8184L122.412 39.3047Q122.412 40.2363 122.219 40.5Q122.043 40.7461 121.182 40.7461L109.598 40.7461Q108.648 40.7461 108.402 40.5352Q108.156 40.3066 108.156 39.3047L108.156 14.8184Q108.156 13.8164 108.402 13.6055Q108.648 13.377 109.598 13.377L121.182 13.377Q122.043 13.377 122.219 13.6406Z" fill="#FFFFFFFF"/>
	<defs/>
</svg>
