<svg width="397" height="325" viewBox="0 0 397 325" fill="none" xmlns="http://www.w3.org/2000/svg">
<circle cx="198.5" cy="198.5" r="198.5" fill="url(#paint0_linear_7_60)"/>
<path fill-rule="evenodd" clip-rule="evenodd" d="M61.4266 342.073C23.5783 305.928 0 254.968 0 198.5C0 88.8715 88.8715 0 198.5 0C308.129 0 397 88.8715 397 198.5C397 255.095 373.315 306.158 335.318 342.318L308.583 315.583C339.619 286.4 359 244.964 359 199C359 110.634 287.366 39 199 39C110.634 39 39 110.634 39 199C39 244.582 58.0605 285.712 88.646 314.854L61.4266 342.073Z" fill="#111111"/>
<path fill-rule="evenodd" clip-rule="evenodd" d="M308.694 315.694C339.67 286.434 359 244.974 359 199C359 110.358 287.142 38.5 198.5 38.5C109.858 38.5 38 110.358 38 199C38 244.847 57.2229 286.204 88.0487 315.451L103.5 300L105.817 297.683C80.0526 273.098 64 238.424 64 200C64 125.442 124.442 65 199 65C273.558 65 334 125.442 334 200C334 238.805 317.627 273.786 291.412 298.412L293 300L308.694 315.694Z" fill="#222222"/>
<defs>
<linearGradient id="paint0_linear_7_60" x1="198.5" y1="0" x2="198.5" y2="397" gradientUnits="userSpaceOnUse">
<stop stop-color="#AAAAAA"/>
<stop offset="1" stop-color="#555555"/>
</linearGradient>
</defs>
</svg>
