<svg width="500" height="500" viewBox="0 0 500 500" fill="none" xmlns="http://www.w3.org/2000/svg">
<line x1="335.889" y1="50.5124" x2="401.889" y2="35.5124" stroke="black"/>
<line x1="335.889" y1="105.512" x2="401.889" y2="90.5124" stroke="black"/>
<line x1="102.035" y1="38.5012" x2="274.035" y2="50.5012" stroke="black"/>
<line x1="102.035" y1="93.5012" x2="274.035" y2="105.501" stroke="black"/>
<rect x="268" y="41" width="75" height="75" rx="20" fill="#FFEECC"/>
<circle cx="280.5" cy="53.5" r="2.5" fill="#FF8800"/>
<circle cx="290.5" cy="53.5" r="2.5" fill="#FF8800"/>
<circle cx="300.5" cy="53.5" r="2.5" fill="#FF8800"/>
<circle cx="310.5" cy="53.5" r="2.5" fill="#FF8800"/>
<circle cx="320.5" cy="53.5" r="2.5" fill="#FF8800"/>
<circle cx="330.5" cy="53.5" r="2.5" fill="#FF8800"/>
<circle cx="280.5" cy="63.5" r="2.5" fill="#FF8800"/>
<circle cx="290.5" cy="63.5" r="2.5" fill="#FF8800"/>
<circle cx="300.5" cy="63.5" r="2.5" fill="#FF8800"/>
<circle cx="310.5" cy="63.5" r="2.5" fill="#FF8800"/>
<circle cx="320.5" cy="63.5" r="2.5" fill="#FF8800"/>
<circle cx="330.5" cy="63.5" r="2.5" fill="#FF8800"/>
<circle cx="280.5" cy="73.5" r="2.5" fill="#FF8800"/>
<circle cx="290.5" cy="73.5" r="2.5" fill="#FF8800"/>
<circle cx="300.5" cy="73.5" r="2.5" fill="#FF8800"/>
<circle cx="310.5" cy="73.5" r="2.5" fill="#FF8800"/>
<circle cx="320.5" cy="73.5" r="2.5" fill="#FF8800"/>
<circle cx="330.5" cy="73.5" r="2.5" fill="#FF8800"/>
<circle cx="280.5" cy="83.5" r="2.5" fill="#FF8800"/>
<circle cx="290.5" cy="83.5" r="2.5" fill="#FF8800"/>
<circle cx="300.5" cy="83.5" r="2.5" fill="#FF8800"/>
<circle cx="310.5" cy="83.5" r="2.5" fill="#FF8800"/>
<circle cx="320.5" cy="83.5" r="2.5" fill="#FF8800"/>
<circle cx="330.5" cy="83.5" r="2.5" fill="#FF8800"/>
<circle cx="280.5" cy="93.5" r="2.5" fill="#FF8800"/>
<circle cx="290.5" cy="93.5" r="2.5" fill="#FF8800"/>
<circle cx="300.5" cy="93.5" r="2.5" fill="#FF8800"/>
<circle cx="310.5" cy="93.5" r="2.5" fill="#FF8800"/>
<circle cx="320.5" cy="93.5" r="2.5" fill="#FF8800"/>
<circle cx="330.5" cy="93.5" r="2.5" fill="#FF8800"/>
<circle cx="280.5" cy="103.5" r="2.5" fill="#FF8800"/>
<circle cx="290.5" cy="103.5" r="2.5" fill="#FF8800"/>
<circle cx="300.5" cy="103.5" r="2.5" fill="#FF8800"/>
<circle cx="310.5" cy="103.5" r="2.5" fill="#FF8800"/>
<circle cx="320.5" cy="103.5" r="2.5" fill="#FF8800"/>
<circle cx="330.5" cy="103.5" r="2.5" fill="#FF8800"/>
</svg>
